<?xml version="1.0" encoding="UTF-8" standalone="no"?>
<!DOCTYPE svg PUBLIC "-//W3C//DTD SVG 1.1//EN"
 "http://www.w3.org/Graphics/SVG/1.1/DTD/svg11.dtd">
<!-- Generated by graphviz version 2.47.0 (20210316.0004)
 -->
<!-- Title: dbml Pages: 1 -->
<svg width="1753pt" height="2905pt"
 viewBox="0.00 0.00 1753.01 2904.64" xmlns="http://www.w3.org/2000/svg" xmlns:xlink="http://www.w3.org/1999/xlink">
<g id="graph0" class="graph" transform="scale(1 1) rotate(0) translate(4 2900.64)">
<title>dbml</title>
<!-- Addres -->
<g id="Addres" class="node">
<title>Addres</title>
<ellipse fill="none" stroke="black" stroke-width="0" cx="966.55" cy="-620.53" rx="294.31" ry="257.27"/>
<polygon fill="#1d71b8" stroke="transparent" points="760.55,-740.53 760.55,-800.53 1172.55,-800.53 1172.55,-740.53 760.55,-740.53"/>
<polygon fill="none" stroke="#29235c" points="760.55,-740.53 760.55,-800.53 1172.55,-800.53 1172.55,-740.53 760.55,-740.53"/>
<text text-anchor="start" x="853.62" y="-761.73" font-family="Helvetica,sans-Serif" font-weight="bold" font-size="32.00" fill="#ffffff"> &#160;&#160;&#160;&#160;&#160;&#160;Addres &#160;&#160;&#160;&#160;&#160;&#160;</text>
<polygon fill="#e7e2dd" stroke="transparent" points="760.55,-680.53 760.55,-740.53 1172.55,-740.53 1172.55,-680.53 760.55,-680.53"/>
<polygon fill="none" stroke="#29235c" points="760.55,-680.53 760.55,-740.53 1172.55,-740.53 1172.55,-680.53 760.55,-680.53"/>
<text text-anchor="start" x="771.55" y="-701.73" font-family="Helvetica,sans-Serif" font-weight="bold" font-size="32.00" fill="#29235c">id</text>
<text text-anchor="start" x="796.44" y="-701.73" font-family="Helvetica,sans-Serif" font-size="32.00" fill="#29235c"> &#160;&#160;&#160;</text>
<text text-anchor="start" x="1019.33" y="-701.73" font-family="Helvetica,sans-Serif" font-style="italic" font-size="32.00" fill="#29235c">INTEGER</text>
<polygon fill="#e7e2dd" stroke="transparent" points="760.55,-620.53 760.55,-680.53 1172.55,-680.53 1172.55,-620.53 760.55,-620.53"/>
<polygon fill="none" stroke="#29235c" points="760.55,-620.53 760.55,-680.53 1172.55,-680.53 1172.55,-620.53 760.55,-620.53"/>
<text text-anchor="start" x="771.55" y="-640.73" font-family="Helvetica,sans-Serif" font-size="32.00" fill="#29235c">customer_id &#160;&#160;&#160;</text>
<text text-anchor="start" x="1019.33" y="-641.73" font-family="Helvetica,sans-Serif" font-style="italic" font-size="32.00" fill="#29235c">INTEGER</text>
<polygon fill="#e7e2dd" stroke="transparent" points="760.55,-560.53 760.55,-620.53 1172.55,-620.53 1172.55,-560.53 760.55,-560.53"/>
<polygon fill="none" stroke="#29235c" points="760.55,-560.53 760.55,-620.53 1172.55,-620.53 1172.55,-560.53 760.55,-560.53"/>
<text text-anchor="start" x="771.18" y="-580.73" font-family="Helvetica,sans-Serif" font-size="32.00" fill="#29235c">address_line1 &#160;&#160;&#160;</text>
<text text-anchor="start" x="1005.34" y="-581.73" font-family="Helvetica,sans-Serif" font-style="italic" font-size="32.00" fill="#29235c">VARCHAR</text>
<polygon fill="#e7e2dd" stroke="transparent" points="760.55,-500.53 760.55,-560.53 1172.55,-560.53 1172.55,-500.53 760.55,-500.53"/>
<polygon fill="none" stroke="#29235c" points="760.55,-500.53 760.55,-560.53 1172.55,-560.53 1172.55,-500.53 760.55,-500.53"/>
<text text-anchor="start" x="771.55" y="-520.73" font-family="Helvetica,sans-Serif" font-size="32.00" fill="#29235c">city &#160;&#160;&#160;</text>
<text text-anchor="start" x="1005.13" y="-521.73" font-family="Helvetica,sans-Serif" font-style="italic" font-size="32.00" fill="#29235c">VARCHAR</text>
<polygon fill="#e7e2dd" stroke="transparent" points="760.55,-440.53 760.55,-500.53 1172.55,-500.53 1172.55,-440.53 760.55,-440.53"/>
<polygon fill="none" stroke="#29235c" points="760.55,-440.53 760.55,-500.53 1172.55,-500.53 1172.55,-440.53 760.55,-440.53"/>
<text text-anchor="start" x="771.55" y="-460.73" font-family="Helvetica,sans-Serif" font-size="32.00" fill="#29235c">postal_code &#160;&#160;&#160;</text>
<text text-anchor="start" x="1005.13" y="-461.73" font-family="Helvetica,sans-Serif" font-style="italic" font-size="32.00" fill="#29235c">VARCHAR</text>
<polygon fill="none" stroke="#29235c" stroke-width="2" points="759.55,-439.53 759.55,-801.53 1173.55,-801.53 1173.55,-439.53 759.55,-439.53"/>
</g>
<!-- Customer -->
<g id="Customer" class="node">
<title>Customer</title>
<ellipse fill="none" stroke="black" stroke-width="0" cx="1520.86" cy="-922.53" rx="224.31" ry="214.92"/>
<polygon fill="#1d71b8" stroke="transparent" points="1364.86,-1012.53 1364.86,-1072.53 1677.86,-1072.53 1677.86,-1012.53 1364.86,-1012.53"/>
<polygon fill="none" stroke="#29235c" points="1364.86,-1012.53 1364.86,-1072.53 1677.86,-1072.53 1677.86,-1012.53 1364.86,-1012.53"/>
<text text-anchor="start" x="1389.78" y="-1033.73" font-family="Helvetica,sans-Serif" font-weight="bold" font-size="32.00" fill="#ffffff"> &#160;&#160;&#160;&#160;&#160;&#160;Customer &#160;&#160;&#160;&#160;&#160;&#160;</text>
<polygon fill="#e7e2dd" stroke="transparent" points="1364.86,-952.53 1364.86,-1012.53 1677.86,-1012.53 1677.86,-952.53 1364.86,-952.53"/>
<polygon fill="none" stroke="#29235c" points="1364.86,-952.53 1364.86,-1012.53 1677.86,-1012.53 1677.86,-952.53 1364.86,-952.53"/>
<text text-anchor="start" x="1375.86" y="-973.73" font-family="Helvetica,sans-Serif" font-weight="bold" font-size="32.00" fill="#29235c">id</text>
<text text-anchor="start" x="1400.75" y="-973.73" font-family="Helvetica,sans-Serif" font-size="32.00" fill="#29235c"> &#160;&#160;&#160;</text>
<text text-anchor="start" x="1524.64" y="-973.73" font-family="Helvetica,sans-Serif" font-style="italic" font-size="32.00" fill="#29235c">INTEGER</text>
<polygon fill="#e7e2dd" stroke="transparent" points="1364.86,-892.53 1364.86,-952.53 1677.86,-952.53 1677.86,-892.53 1364.86,-892.53"/>
<polygon fill="none" stroke="#29235c" points="1364.86,-892.53 1364.86,-952.53 1677.86,-952.53 1677.86,-892.53 1364.86,-892.53"/>
<text text-anchor="start" x="1375.86" y="-912.73" font-family="Helvetica,sans-Serif" font-size="32.00" fill="#29235c">name &#160;&#160;&#160;</text>
<text text-anchor="start" x="1510.44" y="-913.73" font-family="Helvetica,sans-Serif" font-style="italic" font-size="32.00" fill="#29235c">VARCHAR</text>
<polygon fill="#e7e2dd" stroke="transparent" points="1364.86,-832.53 1364.86,-892.53 1677.86,-892.53 1677.86,-832.53 1364.86,-832.53"/>
<polygon fill="none" stroke="#29235c" points="1364.86,-832.53 1364.86,-892.53 1677.86,-892.53 1677.86,-832.53 1364.86,-832.53"/>
<text text-anchor="start" x="1375.86" y="-852.73" font-family="Helvetica,sans-Serif" font-size="32.00" fill="#29235c">balance &#160;&#160;&#160;</text>
<text text-anchor="start" x="1563.74" y="-853.73" font-family="Helvetica,sans-Serif" font-style="italic" font-size="32.00" fill="#29235c">FLOAT</text>
<polygon fill="#e7e2dd" stroke="transparent" points="1364.86,-772.53 1364.86,-832.53 1677.86,-832.53 1677.86,-772.53 1364.86,-772.53"/>
<polygon fill="none" stroke="#29235c" points="1364.86,-772.53 1364.86,-832.53 1677.86,-832.53 1677.86,-772.53 1364.86,-772.53"/>
<text text-anchor="start" x="1375.65" y="-792.73" font-family="Helvetica,sans-Serif" font-size="32.00" fill="#29235c">credit_limit &#160;&#160;&#160;</text>
<text text-anchor="start" x="1563.8" y="-793.73" font-family="Helvetica,sans-Serif" font-style="italic" font-size="32.00" fill="#29235c">FLOAT</text>
<polygon fill="none" stroke="#29235c" stroke-width="2" points="1363.36,-771.53 1363.36,-1073.53 1678.36,-1073.53 1678.36,-771.53 1363.36,-771.53"/>
</g>
<!-- Addres&#45;&gt;Customer -->
<!-- Addres&#45;&gt;Customer -->
<g id="edge2" class="edge">
<title>Addres:e&#45;&gt;Customer:w</title>
<path fill="none" stroke="#29235c" stroke-width="3" d="M1173.55,-650.53C1340.14,-650.53 1199.79,-969.06 1353.8,-982.12"/>
<polygon fill="#29235c" stroke="#29235c" stroke-width="3" points="1353.73,-985.62 1363.86,-982.53 1354.01,-978.63 1353.73,-985.62"/>
<text text-anchor="middle" x="1357.64" y="-992.13" font-family="Helvetica,sans-Serif" font-size="32.00" fill="#29235c">*</text>
<text text-anchor="middle" x="1164.66" y="-660.13" font-family="Helvetica,sans-Serif" font-size="32.00" fill="#29235c">1</text>
</g>
<!-- Category -->
<g id="Category" class="node">
<title>Category</title>
<ellipse fill="none" stroke="black" stroke-width="0" cx="318.2" cy="-1376.53" rx="210.02" ry="130.22"/>
<polygon fill="#1d71b8" stroke="transparent" points="172.2,-1406.53 172.2,-1466.53 465.2,-1466.53 465.2,-1406.53 172.2,-1406.53"/>
<polygon fill="none" stroke="#29235c" points="172.2,-1406.53 172.2,-1466.53 465.2,-1466.53 465.2,-1406.53 172.2,-1406.53"/>
<text text-anchor="start" x="191.55" y="-1427.73" font-family="Helvetica,sans-Serif" font-weight="bold" font-size="32.00" fill="#ffffff"> &#160;&#160;&#160;&#160;&#160;&#160;Category &#160;&#160;&#160;&#160;&#160;&#160;</text>
<polygon fill="#e7e2dd" stroke="transparent" points="172.2,-1346.53 172.2,-1406.53 465.2,-1406.53 465.2,-1346.53 172.2,-1346.53"/>
<polygon fill="none" stroke="#29235c" points="172.2,-1346.53 172.2,-1406.53 465.2,-1406.53 465.2,-1346.53 172.2,-1346.53"/>
<text text-anchor="start" x="183.2" y="-1367.73" font-family="Helvetica,sans-Serif" font-weight="bold" font-size="32.00" fill="#29235c">id</text>
<text text-anchor="start" x="208.09" y="-1367.73" font-family="Helvetica,sans-Serif" font-size="32.00" fill="#29235c"> &#160;&#160;&#160;</text>
<text text-anchor="start" x="311.98" y="-1367.73" font-family="Helvetica,sans-Serif" font-style="italic" font-size="32.00" fill="#29235c">INTEGER</text>
<polygon fill="#e7e2dd" stroke="transparent" points="172.2,-1286.53 172.2,-1346.53 465.2,-1346.53 465.2,-1286.53 172.2,-1286.53"/>
<polygon fill="none" stroke="#29235c" points="172.2,-1286.53 172.2,-1346.53 465.2,-1346.53 465.2,-1286.53 172.2,-1286.53"/>
<text text-anchor="start" x="182.9" y="-1306.73" font-family="Helvetica,sans-Serif" font-size="32.00" fill="#29235c">name &#160;&#160;&#160;</text>
<text text-anchor="start" x="297.99" y="-1307.73" font-family="Helvetica,sans-Serif" font-style="italic" font-size="32.00" fill="#29235c">VARCHAR</text>
<polygon fill="none" stroke="#29235c" stroke-width="2" points="170.7,-1285.53 170.7,-1467.53 465.7,-1467.53 465.7,-1285.53 170.7,-1285.53"/>
</g>
<!-- Inventory -->
<g id="Inventory" class="node">
<title>Inventory</title>
<ellipse fill="none" stroke="black" stroke-width="0" cx="318.2" cy="-172.53" rx="318.4" ry="172.57"/>
<polygon fill="#1d71b8" stroke="transparent" points="95.2,-232.53 95.2,-292.53 541.2,-292.53 541.2,-232.53 95.2,-232.53"/>
<polygon fill="none" stroke="#29235c" points="95.2,-232.53 95.2,-292.53 541.2,-292.53 541.2,-232.53 95.2,-232.53"/>
<text text-anchor="start" x="190.15" y="-253.73" font-family="Helvetica,sans-Serif" font-weight="bold" font-size="32.00" fill="#ffffff"> &#160;&#160;&#160;&#160;&#160;&#160;Inventory &#160;&#160;&#160;&#160;&#160;&#160;</text>
<polygon fill="#e7e2dd" stroke="transparent" points="95.2,-172.53 95.2,-232.53 541.2,-232.53 541.2,-172.53 95.2,-172.53"/>
<polygon fill="none" stroke="#29235c" points="95.2,-172.53 95.2,-232.53 541.2,-232.53 541.2,-172.53 95.2,-172.53"/>
<text text-anchor="start" x="106.2" y="-193.73" font-family="Helvetica,sans-Serif" font-weight="bold" font-size="32.00" fill="#29235c">id</text>
<text text-anchor="start" x="131.09" y="-193.73" font-family="Helvetica,sans-Serif" font-size="32.00" fill="#29235c"> &#160;&#160;&#160;</text>
<text text-anchor="start" x="387.98" y="-193.73" font-family="Helvetica,sans-Serif" font-style="italic" font-size="32.00" fill="#29235c">INTEGER</text>
<polygon fill="#e7e2dd" stroke="transparent" points="95.2,-112.53 95.2,-172.53 541.2,-172.53 541.2,-112.53 95.2,-112.53"/>
<polygon fill="none" stroke="#29235c" points="95.2,-112.53 95.2,-172.53 541.2,-172.53 541.2,-112.53 95.2,-112.53"/>
<text text-anchor="start" x="106.2" y="-132.73" font-family="Helvetica,sans-Serif" font-size="32.00" fill="#29235c">product_id &#160;&#160;&#160;</text>
<text text-anchor="start" x="387.98" y="-133.73" font-family="Helvetica,sans-Serif" font-style="italic" font-size="32.00" fill="#29235c">INTEGER</text>
<polygon fill="#e7e2dd" stroke="transparent" points="95.2,-52.53 95.2,-112.53 541.2,-112.53 541.2,-52.53 95.2,-52.53"/>
<polygon fill="none" stroke="#29235c" points="95.2,-52.53 95.2,-112.53 541.2,-112.53 541.2,-52.53 95.2,-52.53"/>
<text text-anchor="start" x="105.82" y="-72.73" font-family="Helvetica,sans-Serif" font-size="32.00" fill="#29235c">quantity_in_stock &#160;&#160;&#160;</text>
<text text-anchor="start" x="388.09" y="-73.73" font-family="Helvetica,sans-Serif" font-style="italic" font-size="32.00" fill="#29235c">INTEGER</text>
<polygon fill="none" stroke="#29235c" stroke-width="2" points="94.2,-51.53 94.2,-293.53 542.2,-293.53 542.2,-51.53 94.2,-51.53"/>
</g>
<!-- Product -->
<g id="Product" class="node">
<title>Product</title>
<ellipse fill="none" stroke="black" stroke-width="0" cx="966.55" cy="-172.53" rx="214.01" ry="172.57"/>
<polygon fill="#1d71b8" stroke="transparent" points="817.55,-232.53 817.55,-292.53 1116.55,-292.53 1116.55,-232.53 817.55,-232.53"/>
<polygon fill="none" stroke="#29235c" points="817.55,-232.53 817.55,-292.53 1116.55,-292.53 1116.55,-232.53 817.55,-232.53"/>
<text text-anchor="start" x="849.68" y="-253.73" font-family="Helvetica,sans-Serif" font-weight="bold" font-size="32.00" fill="#ffffff"> &#160;&#160;&#160;&#160;&#160;&#160;Product &#160;&#160;&#160;&#160;&#160;&#160;</text>
<polygon fill="#e7e2dd" stroke="transparent" points="817.55,-172.53 817.55,-232.53 1116.55,-232.53 1116.55,-172.53 817.55,-172.53"/>
<polygon fill="none" stroke="#29235c" points="817.55,-172.53 817.55,-232.53 1116.55,-232.53 1116.55,-172.53 817.55,-172.53"/>
<text text-anchor="start" x="828.55" y="-193.73" font-family="Helvetica,sans-Serif" font-weight="bold" font-size="32.00" fill="#29235c">id</text>
<text text-anchor="start" x="853.44" y="-193.73" font-family="Helvetica,sans-Serif" font-size="32.00" fill="#29235c"> &#160;&#160;&#160;</text>
<text text-anchor="start" x="963.33" y="-193.73" font-family="Helvetica,sans-Serif" font-style="italic" font-size="32.00" fill="#29235c">INTEGER</text>
<polygon fill="#e7e2dd" stroke="transparent" points="817.55,-112.53 817.55,-172.53 1116.55,-172.53 1116.55,-112.53 817.55,-112.53"/>
<polygon fill="none" stroke="#29235c" points="817.55,-112.53 817.55,-172.53 1116.55,-172.53 1116.55,-112.53 817.55,-112.53"/>
<text text-anchor="start" x="828.55" y="-132.73" font-family="Helvetica,sans-Serif" font-size="32.00" fill="#29235c">name &#160;&#160;&#160;</text>
<text text-anchor="start" x="949.13" y="-133.73" font-family="Helvetica,sans-Serif" font-style="italic" font-size="32.00" fill="#29235c">VARCHAR</text>
<polygon fill="#e7e2dd" stroke="transparent" points="817.55,-52.53 817.55,-112.53 1116.55,-112.53 1116.55,-52.53 817.55,-52.53"/>
<polygon fill="none" stroke="#29235c" points="817.55,-52.53 817.55,-112.53 1116.55,-112.53 1116.55,-52.53 817.55,-52.53"/>
<text text-anchor="start" x="828.42" y="-72.73" font-family="Helvetica,sans-Serif" font-size="32.00" fill="#29235c">unit_price &#160;&#160;&#160;</text>
<text text-anchor="start" x="1002.49" y="-73.73" font-family="Helvetica,sans-Serif" font-style="italic" font-size="32.00" fill="#29235c">FLOAT</text>
<polygon fill="none" stroke="#29235c" stroke-width="2" points="816.05,-51.53 816.05,-293.53 1117.05,-293.53 1117.05,-51.53 816.05,-51.53"/>
</g>
<!-- Inventory&#45;&gt;Product -->
<!-- Inventory&#45;&gt;Product -->
<g id="edge4" class="edge">
<title>Inventory:e&#45;&gt;Product:w</title>
<path fill="none" stroke="#29235c" stroke-width="3" d="M542.2,-142.53C663.6,-142.53 690.31,-199.3 806.53,-202.4"/>
<polygon fill="#29235c" stroke="#29235c" stroke-width="3" points="806.51,-205.9 816.55,-202.53 806.6,-198.9 806.51,-205.9"/>
<text text-anchor="middle" x="810.33" y="-173.73" font-family="Helvetica,sans-Serif" font-size="32.00" fill="#29235c">*</text>
<text text-anchor="middle" x="551.09" y="-113.73" font-family="Helvetica,sans-Serif" font-size="32.00" fill="#29235c">1</text>
</g>
<!-- Item -->
<g id="Item" class="node">
<title>Item</title>
<ellipse fill="none" stroke="black" stroke-width="0" cx="318.2" cy="-928.53" rx="248.8" ry="299.63"/>
<polygon fill="#1d71b8" stroke="transparent" points="144.2,-1078.53 144.2,-1138.53 492.2,-1138.53 492.2,-1078.53 144.2,-1078.53"/>
<polygon fill="none" stroke="#29235c" points="144.2,-1078.53 144.2,-1138.53 492.2,-1138.53 492.2,-1078.53 144.2,-1078.53"/>
<text text-anchor="start" x="224.83" y="-1099.73" font-family="Helvetica,sans-Serif" font-weight="bold" font-size="32.00" fill="#ffffff"> &#160;&#160;&#160;&#160;&#160;&#160;Item &#160;&#160;&#160;&#160;&#160;&#160;</text>
<polygon fill="#e7e2dd" stroke="transparent" points="144.2,-1018.53 144.2,-1078.53 492.2,-1078.53 492.2,-1018.53 144.2,-1018.53"/>
<polygon fill="none" stroke="#29235c" points="144.2,-1018.53 144.2,-1078.53 492.2,-1078.53 492.2,-1018.53 144.2,-1018.53"/>
<text text-anchor="start" x="155.2" y="-1039.73" font-family="Helvetica,sans-Serif" font-weight="bold" font-size="32.00" fill="#29235c">id</text>
<text text-anchor="start" x="180.09" y="-1039.73" font-family="Helvetica,sans-Serif" font-size="32.00" fill="#29235c"> &#160;&#160;&#160;</text>
<text text-anchor="start" x="338.98" y="-1039.73" font-family="Helvetica,sans-Serif" font-style="italic" font-size="32.00" fill="#29235c">INTEGER</text>
<polygon fill="#e7e2dd" stroke="transparent" points="144.2,-958.53 144.2,-1018.53 492.2,-1018.53 492.2,-958.53 144.2,-958.53"/>
<polygon fill="none" stroke="#29235c" points="144.2,-958.53 144.2,-1018.53 492.2,-1018.53 492.2,-958.53 144.2,-958.53"/>
<text text-anchor="start" x="155.2" y="-978.73" font-family="Helvetica,sans-Serif" font-size="32.00" fill="#29235c">order_id &#160;&#160;&#160;</text>
<text text-anchor="start" x="338.98" y="-979.73" font-family="Helvetica,sans-Serif" font-style="italic" font-size="32.00" fill="#29235c">INTEGER</text>
<polygon fill="#e7e2dd" stroke="transparent" points="144.2,-898.53 144.2,-958.53 492.2,-958.53 492.2,-898.53 144.2,-898.53"/>
<polygon fill="none" stroke="#29235c" points="144.2,-898.53 144.2,-958.53 492.2,-958.53 492.2,-898.53 144.2,-898.53"/>
<text text-anchor="start" x="154.72" y="-918.73" font-family="Helvetica,sans-Serif" font-size="32.00" fill="#29235c">product_id &#160;&#160;&#160;</text>
<text text-anchor="start" x="339.09" y="-919.73" font-family="Helvetica,sans-Serif" font-style="italic" font-size="32.00" fill="#29235c">INTEGER</text>
<polygon fill="#e7e2dd" stroke="transparent" points="144.2,-838.53 144.2,-898.53 492.2,-898.53 492.2,-838.53 144.2,-838.53"/>
<polygon fill="none" stroke="#29235c" points="144.2,-838.53 144.2,-898.53 492.2,-898.53 492.2,-838.53 144.2,-838.53"/>
<text text-anchor="start" x="155.2" y="-858.73" font-family="Helvetica,sans-Serif" font-size="32.00" fill="#29235c">quantity &#160;&#160;&#160;</text>
<text text-anchor="start" x="338.98" y="-859.73" font-family="Helvetica,sans-Serif" font-style="italic" font-size="32.00" fill="#29235c">INTEGER</text>
<polygon fill="#e7e2dd" stroke="transparent" points="144.2,-778.53 144.2,-838.53 492.2,-838.53 492.2,-778.53 144.2,-778.53"/>
<polygon fill="none" stroke="#29235c" points="144.2,-778.53 144.2,-838.53 492.2,-838.53 492.2,-778.53 144.2,-778.53"/>
<text text-anchor="start" x="155.2" y="-798.73" font-family="Helvetica,sans-Serif" font-size="32.00" fill="#29235c">unit_price &#160;&#160;&#160;</text>
<text text-anchor="start" x="378.08" y="-799.73" font-family="Helvetica,sans-Serif" font-style="italic" font-size="32.00" fill="#29235c">FLOAT</text>
<polygon fill="#e7e2dd" stroke="transparent" points="144.2,-718.53 144.2,-778.53 492.2,-778.53 492.2,-718.53 144.2,-718.53"/>
<polygon fill="none" stroke="#29235c" points="144.2,-718.53 144.2,-778.53 492.2,-778.53 492.2,-718.53 144.2,-718.53"/>
<text text-anchor="start" x="155.2" y="-738.73" font-family="Helvetica,sans-Serif" font-size="32.00" fill="#29235c">amount &#160;&#160;&#160;</text>
<text text-anchor="start" x="378.08" y="-739.73" font-family="Helvetica,sans-Serif" font-style="italic" font-size="32.00" fill="#29235c">FLOAT</text>
<polygon fill="none" stroke="#29235c" stroke-width="2" points="143.2,-717.53 143.2,-1139.53 493.2,-1139.53 493.2,-717.53 143.2,-717.53"/>
</g>
<!-- Item&#45;&gt;Product -->
<!-- Item&#45;&gt;Product -->
<g id="edge8" class="edge">
<title>Item:e&#45;&gt;Product:w</title>
<path fill="none" stroke="#29235c" stroke-width="3" d="M493.2,-928.53C842.97,-928.53 470.74,-216.64 806.41,-202.74"/>
<polygon fill="#29235c" stroke="#29235c" stroke-width="3" points="806.63,-206.24 816.55,-202.53 806.48,-199.24 806.63,-206.24"/>
<text text-anchor="middle" x="822.77" y="-173.73" font-family="Helvetica,sans-Serif" font-size="32.00" fill="#29235c">*</text>
<text text-anchor="middle" x="502.09" y="-938.13" font-family="Helvetica,sans-Serif" font-size="32.00" fill="#29235c">1</text>
</g>
<!-- Order -->
<g id="Order" class="node">
<title>Order</title>
<ellipse fill="none" stroke="black" stroke-width="0" cx="966.55" cy="-1195.53" rx="292.98" ry="299.63"/>
<polygon fill="#1d71b8" stroke="transparent" points="761.55,-1345.53 761.55,-1405.53 1171.55,-1405.53 1171.55,-1345.53 761.55,-1345.53"/>
<polygon fill="none" stroke="#29235c" points="761.55,-1345.53 761.55,-1405.53 1171.55,-1405.53 1171.55,-1345.53 761.55,-1345.53"/>
<text text-anchor="start" x="863.41" y="-1366.73" font-family="Helvetica,sans-Serif" font-weight="bold" font-size="32.00" fill="#ffffff"> &#160;&#160;&#160;&#160;&#160;&#160;Order &#160;&#160;&#160;&#160;&#160;&#160;</text>
<polygon fill="#e7e2dd" stroke="transparent" points="761.55,-1285.53 761.55,-1345.53 1171.55,-1345.53 1171.55,-1285.53 761.55,-1285.53"/>
<polygon fill="none" stroke="#29235c" points="761.55,-1285.53 761.55,-1345.53 1171.55,-1345.53 1171.55,-1285.53 761.55,-1285.53"/>
<text text-anchor="start" x="772.55" y="-1306.73" font-family="Helvetica,sans-Serif" font-weight="bold" font-size="32.00" fill="#29235c">id</text>
<text text-anchor="start" x="797.44" y="-1306.73" font-family="Helvetica,sans-Serif" font-size="32.00" fill="#29235c"> &#160;&#160;&#160;</text>
<text text-anchor="start" x="1018.33" y="-1306.73" font-family="Helvetica,sans-Serif" font-style="italic" font-size="32.00" fill="#29235c">INTEGER</text>
<polygon fill="#e7e2dd" stroke="transparent" points="761.55,-1225.53 761.55,-1285.53 1171.55,-1285.53 1171.55,-1225.53 761.55,-1225.53"/>
<polygon fill="none" stroke="#29235c" points="761.55,-1225.53 761.55,-1285.53 1171.55,-1285.53 1171.55,-1225.53 761.55,-1225.53"/>
<text text-anchor="start" x="772.55" y="-1245.73" font-family="Helvetica,sans-Serif" font-size="32.00" fill="#29235c">customer_id &#160;&#160;&#160;</text>
<text text-anchor="start" x="1018.33" y="-1246.73" font-family="Helvetica,sans-Serif" font-style="italic" font-size="32.00" fill="#29235c">INTEGER</text>
<polygon fill="#e7e2dd" stroke="transparent" points="761.55,-1165.53 761.55,-1225.53 1171.55,-1225.53 1171.55,-1165.53 761.55,-1165.53"/>
<polygon fill="none" stroke="#29235c" points="761.55,-1165.53 761.55,-1225.53 1171.55,-1225.53 1171.55,-1165.53 761.55,-1165.53"/>
<text text-anchor="start" x="772.55" y="-1185.73" font-family="Helvetica,sans-Serif" font-size="32.00" fill="#29235c">date_placed &#160;&#160;&#160;</text>
<text text-anchor="start" x="998.79" y="-1186.73" font-family="Helvetica,sans-Serif" font-style="italic" font-size="32.00" fill="#29235c">DATETIME</text>
<polygon fill="#e7e2dd" stroke="transparent" points="761.55,-1105.53 761.55,-1165.53 1171.55,-1165.53 1171.55,-1105.53 761.55,-1105.53"/>
<polygon fill="none" stroke="#29235c" points="761.55,-1105.53 761.55,-1165.53 1171.55,-1165.53 1171.55,-1105.53 761.55,-1105.53"/>
<text text-anchor="start" x="772.22" y="-1125.73" font-family="Helvetica,sans-Serif" font-size="32.00" fill="#29235c">date_shipped &#160;&#160;&#160;</text>
<text text-anchor="start" x="999.17" y="-1126.73" font-family="Helvetica,sans-Serif" font-style="italic" font-size="32.00" fill="#29235c">DATETIME</text>
<polygon fill="#e7e2dd" stroke="transparent" points="761.55,-1045.53 761.55,-1105.53 1171.55,-1105.53 1171.55,-1045.53 761.55,-1045.53"/>
<polygon fill="none" stroke="#29235c" points="761.55,-1045.53 761.55,-1105.53 1171.55,-1105.53 1171.55,-1045.53 761.55,-1045.53"/>
<text text-anchor="start" x="772.55" y="-1065.73" font-family="Helvetica,sans-Serif" font-size="32.00" fill="#29235c">amount_total &#160;&#160;&#160;</text>
<text text-anchor="start" x="1057.43" y="-1066.73" font-family="Helvetica,sans-Serif" font-style="italic" font-size="32.00" fill="#29235c">FLOAT</text>
<polygon fill="#e7e2dd" stroke="transparent" points="761.55,-985.53 761.55,-1045.53 1171.55,-1045.53 1171.55,-985.53 761.55,-985.53"/>
<polygon fill="none" stroke="#29235c" points="761.55,-985.53 761.55,-1045.53 1171.55,-1045.53 1171.55,-985.53 761.55,-985.53"/>
<text text-anchor="start" x="772.55" y="-1005.73" font-family="Helvetica,sans-Serif" font-size="32.00" fill="#29235c">notes &#160;&#160;&#160;</text>
<text text-anchor="start" x="1004.13" y="-1006.73" font-family="Helvetica,sans-Serif" font-style="italic" font-size="32.00" fill="#29235c">VARCHAR</text>
<polygon fill="none" stroke="#29235c" stroke-width="2" points="760.55,-984.53 760.55,-1406.53 1172.55,-1406.53 1172.55,-984.53 760.55,-984.53"/>
</g>
<!-- Item&#45;&gt;Order -->
<!-- Item&#45;&gt;Order -->
<g id="edge6" class="edge">
<title>Item:e&#45;&gt;Order:w</title>
<path fill="none" stroke="#29235c" stroke-width="3" d="M493.2,-988.53C677.44,-988.53 576.74,-1303.51 750.4,-1315.2"/>
<polygon fill="#29235c" stroke="#29235c" stroke-width="3" points="750.44,-1318.7 760.55,-1315.53 750.67,-1311.71 750.44,-1318.7"/>
<text text-anchor="middle" x="754.33" y="-1325.13" font-family="Helvetica,sans-Serif" font-size="32.00" fill="#29235c">*</text>
<text text-anchor="middle" x="502.09" y="-998.13" font-family="Helvetica,sans-Serif" font-size="32.00" fill="#29235c">1</text>
</g>
<!-- Order&#45;&gt;Customer -->
<!-- Order&#45;&gt;Customer -->
<g id="edge10" class="edge">
<title>Order:e&#45;&gt;Customer:w</title>
<path fill="none" stroke="#29235c" stroke-width="3" d="M1172.55,-1255.53C1317.24,-1255.53 1220.49,-995.18 1353.86,-982.98"/>
<polygon fill="#29235c" stroke="#29235c" stroke-width="3" points="1354.03,-986.47 1363.86,-982.53 1353.72,-979.48 1354.03,-986.47"/>
<text text-anchor="middle" x="1357.64" y="-953.73" font-family="Helvetica,sans-Serif" font-size="32.00" fill="#29235c">*</text>
<text text-anchor="middle" x="1163.66" y="-1265.13" font-family="Helvetica,sans-Serif" font-size="32.00" fill="#29235c">1</text>
</g>
<!-- OrderStatu -->
<g id="OrderStatu" class="node">
<title>OrderStatu</title>
<ellipse fill="none" stroke="black" stroke-width="0" cx="318.2" cy="-1654.53" rx="282.69" ry="130.22"/>
<polygon fill="#1d71b8" stroke="transparent" points="120.2,-1684.53 120.2,-1744.53 516.2,-1744.53 516.2,-1684.53 120.2,-1684.53"/>
<polygon fill="none" stroke="#29235c" points="120.2,-1684.53 120.2,-1744.53 516.2,-1744.53 516.2,-1684.53 120.2,-1684.53"/>
<text text-anchor="start" x="177.71" y="-1705.73" font-family="Helvetica,sans-Serif" font-weight="bold" font-size="32.00" fill="#ffffff"> &#160;&#160;&#160;&#160;&#160;&#160;OrderStatu &#160;&#160;&#160;&#160;&#160;&#160;</text>
<polygon fill="#e7e2dd" stroke="transparent" points="120.2,-1624.53 120.2,-1684.53 516.2,-1684.53 516.2,-1624.53 120.2,-1624.53"/>
<polygon fill="none" stroke="#29235c" points="120.2,-1624.53 120.2,-1684.53 516.2,-1684.53 516.2,-1624.53 120.2,-1624.53"/>
<text text-anchor="start" x="131.2" y="-1645.73" font-family="Helvetica,sans-Serif" font-weight="bold" font-size="32.00" fill="#29235c">id</text>
<text text-anchor="start" x="156.09" y="-1645.73" font-family="Helvetica,sans-Serif" font-size="32.00" fill="#29235c"> &#160;&#160;&#160;</text>
<text text-anchor="start" x="362.98" y="-1645.73" font-family="Helvetica,sans-Serif" font-style="italic" font-size="32.00" fill="#29235c">INTEGER</text>
<polygon fill="#e7e2dd" stroke="transparent" points="120.2,-1564.53 120.2,-1624.53 516.2,-1624.53 516.2,-1564.53 120.2,-1564.53"/>
<polygon fill="none" stroke="#29235c" points="120.2,-1564.53 120.2,-1624.53 516.2,-1624.53 516.2,-1564.53 120.2,-1564.53"/>
<text text-anchor="start" x="130.83" y="-1584.73" font-family="Helvetica,sans-Serif" font-size="32.00" fill="#29235c">status_name &#160;&#160;&#160;</text>
<text text-anchor="start" x="348.99" y="-1585.73" font-family="Helvetica,sans-Serif" font-style="italic" font-size="32.00" fill="#29235c">VARCHAR</text>
<polygon fill="none" stroke="#29235c" stroke-width="2" points="119.2,-1563.53 119.2,-1745.53 517.2,-1745.53 517.2,-1563.53 119.2,-1563.53"/>
</g>
<!-- PaymentMethod -->
<g id="PaymentMethod" class="node">
<title>PaymentMethod</title>
<ellipse fill="none" stroke="black" stroke-width="0" cx="318.2" cy="-1932.53" rx="284.01" ry="130.22"/>
<polygon fill="#1d71b8" stroke="transparent" points="119.2,-1962.53 119.2,-2022.53 517.2,-2022.53 517.2,-1962.53 119.2,-1962.53"/>
<polygon fill="none" stroke="#29235c" points="119.2,-1962.53 119.2,-2022.53 517.2,-2022.53 517.2,-1962.53 119.2,-1962.53"/>
<text text-anchor="start" x="139.47" y="-1983.73" font-family="Helvetica,sans-Serif" font-weight="bold" font-size="32.00" fill="#ffffff"> &#160;&#160;&#160;&#160;&#160;&#160;PaymentMethod &#160;&#160;&#160;&#160;&#160;&#160;</text>
<polygon fill="#e7e2dd" stroke="transparent" points="119.2,-1902.53 119.2,-1962.53 517.2,-1962.53 517.2,-1902.53 119.2,-1902.53"/>
<polygon fill="none" stroke="#29235c" points="119.2,-1902.53 119.2,-1962.53 517.2,-1962.53 517.2,-1902.53 119.2,-1902.53"/>
<text text-anchor="start" x="130.2" y="-1923.73" font-family="Helvetica,sans-Serif" font-weight="bold" font-size="32.00" fill="#29235c">id</text>
<text text-anchor="start" x="155.09" y="-1923.73" font-family="Helvetica,sans-Serif" font-size="32.00" fill="#29235c"> &#160;&#160;&#160;</text>
<text text-anchor="start" x="363.98" y="-1923.73" font-family="Helvetica,sans-Serif" font-style="italic" font-size="32.00" fill="#29235c">INTEGER</text>
<polygon fill="#e7e2dd" stroke="transparent" points="119.2,-1842.53 119.2,-1902.53 517.2,-1902.53 517.2,-1842.53 119.2,-1842.53"/>
<polygon fill="none" stroke="#29235c" points="119.2,-1842.53 119.2,-1902.53 517.2,-1902.53 517.2,-1842.53 119.2,-1842.53"/>
<text text-anchor="start" x="129.93" y="-1862.73" font-family="Helvetica,sans-Serif" font-size="32.00" fill="#29235c">method_type &#160;&#160;&#160;</text>
<text text-anchor="start" x="349.99" y="-1863.73" font-family="Helvetica,sans-Serif" font-style="italic" font-size="32.00" fill="#29235c">VARCHAR</text>
<polygon fill="none" stroke="#29235c" stroke-width="2" points="118.2,-1841.53 118.2,-2023.53 518.2,-2023.53 518.2,-1841.53 118.2,-1841.53"/>
</g>
<!-- Promotion -->
<g id="Promotion" class="node">
<title>Promotion</title>
<ellipse fill="none" stroke="black" stroke-width="0" cx="318.2" cy="-2210.53" rx="263.09" ry="130.22"/>
<polygon fill="#1d71b8" stroke="transparent" points="134.2,-2240.53 134.2,-2300.53 502.2,-2300.53 502.2,-2240.53 134.2,-2240.53"/>
<polygon fill="none" stroke="#29235c" points="134.2,-2240.53 134.2,-2300.53 502.2,-2300.53 502.2,-2240.53 134.2,-2240.53"/>
<text text-anchor="start" x="183.05" y="-2261.73" font-family="Helvetica,sans-Serif" font-weight="bold" font-size="32.00" fill="#ffffff"> &#160;&#160;&#160;&#160;&#160;&#160;Promotion &#160;&#160;&#160;&#160;&#160;&#160;</text>
<polygon fill="#e7e2dd" stroke="transparent" points="134.2,-2180.53 134.2,-2240.53 502.2,-2240.53 502.2,-2180.53 134.2,-2180.53"/>
<polygon fill="none" stroke="#29235c" points="134.2,-2180.53 134.2,-2240.53 502.2,-2240.53 502.2,-2180.53 134.2,-2180.53"/>
<text text-anchor="start" x="145.2" y="-2201.73" font-family="Helvetica,sans-Serif" font-weight="bold" font-size="32.00" fill="#29235c">id</text>
<text text-anchor="start" x="170.09" y="-2201.73" font-family="Helvetica,sans-Serif" font-size="32.00" fill="#29235c"> &#160;&#160;&#160;</text>
<text text-anchor="start" x="348.98" y="-2201.73" font-family="Helvetica,sans-Serif" font-style="italic" font-size="32.00" fill="#29235c">INTEGER</text>
<polygon fill="#e7e2dd" stroke="transparent" points="134.2,-2120.53 134.2,-2180.53 502.2,-2180.53 502.2,-2120.53 134.2,-2120.53"/>
<polygon fill="none" stroke="#29235c" points="134.2,-2120.53 134.2,-2180.53 502.2,-2180.53 502.2,-2120.53 134.2,-2120.53"/>
<text text-anchor="start" x="145.07" y="-2140.73" font-family="Helvetica,sans-Serif" font-size="32.00" fill="#29235c">description &#160;&#160;&#160;</text>
<text text-anchor="start" x="334.99" y="-2141.73" font-family="Helvetica,sans-Serif" font-style="italic" font-size="32.00" fill="#29235c">VARCHAR</text>
<polygon fill="none" stroke="#29235c" stroke-width="2" points="133.2,-2119.53 133.2,-2301.53 503.2,-2301.53 503.2,-2119.53 133.2,-2119.53"/>
</g>
<!-- ShippingMethod -->
<g id="ShippingMethod" class="node">
<title>ShippingMethod</title>
<ellipse fill="none" stroke="black" stroke-width="0" cx="318.2" cy="-2488.53" rx="298.3" ry="130.22"/>
<polygon fill="#1d71b8" stroke="transparent" points="109.2,-2518.53 109.2,-2578.53 527.2,-2578.53 527.2,-2518.53 109.2,-2518.53"/>
<polygon fill="none" stroke="#29235c" points="109.2,-2518.53 109.2,-2578.53 527.2,-2578.53 527.2,-2518.53 109.2,-2518.53"/>
<text text-anchor="start" x="140.35" y="-2539.73" font-family="Helvetica,sans-Serif" font-weight="bold" font-size="32.00" fill="#ffffff"> &#160;&#160;&#160;&#160;&#160;&#160;ShippingMethod &#160;&#160;&#160;&#160;&#160;&#160;</text>
<polygon fill="#e7e2dd" stroke="transparent" points="109.2,-2458.53 109.2,-2518.53 527.2,-2518.53 527.2,-2458.53 109.2,-2458.53"/>
<polygon fill="none" stroke="#29235c" points="109.2,-2458.53 109.2,-2518.53 527.2,-2518.53 527.2,-2458.53 109.2,-2458.53"/>
<text text-anchor="start" x="120.2" y="-2479.73" font-family="Helvetica,sans-Serif" font-weight="bold" font-size="32.00" fill="#29235c">id</text>
<text text-anchor="start" x="145.09" y="-2479.73" font-family="Helvetica,sans-Serif" font-size="32.00" fill="#29235c"> &#160;&#160;&#160;</text>
<text text-anchor="start" x="373.98" y="-2479.73" font-family="Helvetica,sans-Serif" font-style="italic" font-size="32.00" fill="#29235c">INTEGER</text>
<polygon fill="#e7e2dd" stroke="transparent" points="109.2,-2398.53 109.2,-2458.53 527.2,-2458.53 527.2,-2398.53 109.2,-2398.53"/>
<polygon fill="none" stroke="#29235c" points="109.2,-2398.53 109.2,-2458.53 527.2,-2458.53 527.2,-2398.53 109.2,-2398.53"/>
<text text-anchor="start" x="120.16" y="-2418.73" font-family="Helvetica,sans-Serif" font-size="32.00" fill="#29235c">method_name &#160;&#160;&#160;</text>
<text text-anchor="start" x="359.99" y="-2419.73" font-family="Helvetica,sans-Serif" font-style="italic" font-size="32.00" fill="#29235c">VARCHAR</text>
<polygon fill="none" stroke="#29235c" stroke-width="2" points="108.2,-2397.53 108.2,-2579.53 528.2,-2579.53 528.2,-2397.53 108.2,-2397.53"/>
</g>
<!-- Supplier -->
<g id="Supplier" class="node">
<title>Supplier</title>
<ellipse fill="none" stroke="black" stroke-width="0" cx="318.2" cy="-2766.53" rx="210.02" ry="130.22"/>
<polygon fill="#1d71b8" stroke="transparent" points="172.2,-2796.53 172.2,-2856.53 465.2,-2856.53 465.2,-2796.53 172.2,-2796.53"/>
<polygon fill="none" stroke="#29235c" points="172.2,-2796.53 172.2,-2856.53 465.2,-2856.53 465.2,-2796.53 172.2,-2796.53"/>
<text text-anchor="start" x="197.77" y="-2817.73" font-family="Helvetica,sans-Serif" font-weight="bold" font-size="32.00" fill="#ffffff"> &#160;&#160;&#160;&#160;&#160;&#160;Supplier &#160;&#160;&#160;&#160;&#160;&#160;</text>
<polygon fill="#e7e2dd" stroke="transparent" points="172.2,-2736.53 172.2,-2796.53 465.2,-2796.53 465.2,-2736.53 172.2,-2736.53"/>
<polygon fill="none" stroke="#29235c" points="172.2,-2736.53 172.2,-2796.53 465.2,-2796.53 465.2,-2736.53 172.2,-2736.53"/>
<text text-anchor="start" x="183.2" y="-2757.73" font-family="Helvetica,sans-Serif" font-weight="bold" font-size="32.00" fill="#29235c">id</text>
<text text-anchor="start" x="208.09" y="-2757.73" font-family="Helvetica,sans-Serif" font-size="32.00" fill="#29235c"> &#160;&#160;&#160;</text>
<text text-anchor="start" x="311.98" y="-2757.73" font-family="Helvetica,sans-Serif" font-style="italic" font-size="32.00" fill="#29235c">INTEGER</text>
<polygon fill="#e7e2dd" stroke="transparent" points="172.2,-2676.53 172.2,-2736.53 465.2,-2736.53 465.2,-2676.53 172.2,-2676.53"/>
<polygon fill="none" stroke="#29235c" points="172.2,-2676.53 172.2,-2736.53 465.2,-2736.53 465.2,-2676.53 172.2,-2676.53"/>
<text text-anchor="start" x="182.9" y="-2696.73" font-family="Helvetica,sans-Serif" font-size="32.00" fill="#29235c">name &#160;&#160;&#160;</text>
<text text-anchor="start" x="297.99" y="-2697.73" font-family="Helvetica,sans-Serif" font-style="italic" font-size="32.00" fill="#29235c">VARCHAR</text>
<polygon fill="none" stroke="#29235c" stroke-width="2" points="170.7,-2675.53 170.7,-2857.53 465.7,-2857.53 465.7,-2675.53 170.7,-2675.53"/>
</g>
</g>
</svg>
